<?xml version="1.0" standalone="no"?>
<!DOCTYPE svg PUBLIC "-//W3C//DTD SVG 20010904//EN"
 "http://www.w3.org/TR/2001/REC-SVG-20010904/DTD/svg10.dtd">
<svg version="1.0" xmlns="http://www.w3.org/2000/svg"
 width="960.000000pt" height="960.000000pt" viewBox="0 0 960.000000 960.000000"
 preserveAspectRatio="xMidYMid meet">

<g transform="translate(0.000000,960.000000) scale(0.100000,-0.100000)"
fill="#000000" stroke="none">
<path d="M0 4800 l0 -4800 4800 0 4800 0 0 4800 0 4800 -4800 0 -4800 0 0
-4800z m5005 3990 c274 -16 505 -52 760 -117 1551 -396 2709 -1698 2935 -3298
95 -672 10 -1385 -240 -2015 -270 -682 -724 -1278 -1305 -1716 -938 -708
-2150 -957 -3295 -678 -1334 325 -2420 1346 -2829 2659 -78 250 -121 453 -158
730 -28 217 -26 761 5 976 67 475 187 869 386 1269 222 446 479 788 861 1147
656 617 1526 988 2440 1042 193 12 253 12 440 1z"/>
<path d="M4405 8745 c-559 -59 -1064 -221 -1555 -500 -556 -316 -1065 -815
-1402 -1375 -286 -476 -465 -992 -540 -1558 -29 -223 -32 -721 -5 -934 101
-799 397 -1491 896 -2092 113 -135 359 -380 501 -498 577 -479 1235 -765 2010
-874 179 -25 664 -30 860 -10 781 82 1471 366 2080 854 120 96 385 356 499
487 660 763 1005 1771 951 2773 -31 578 -155 1050 -410 1567 -213 431 -445
745 -811 1100 -212 205 -420 365 -670 515 -478 287 -957 454 -1539 536 -160
22 -688 28 -865 9z m-1522 -1498 c22 -61 81 -236 132 -387 123 -363 162 -477
457 -1325 138 -396 257 -739 265 -762 l15 -43 65 0 c48 0 64 -3 60 -12 -3 -7
-19 -45 -37 -84 -29 -66 -31 -73 -18 -104 l14 -34 48 110 c27 60 53 114 58
119 12 12 -4 -27 -62 -152 l-42 -92 57 -163 c135 -389 483 -1399 547 -1591 39
-114 74 -205 78 -200 7 7 88 187 188 418 14 33 30 65 35 70 13 14 15 18 -108
-263 l-110 -252 -111 0 -111 0 -163 383 c-90 210 -175 411 -190 447 -229 540
-304 710 -310 703 -7 -7 -351 -759 -585 -1278 -37 -82 -78 -174 -92 -204 -13
-29 -26 -51 -28 -49 -3 3 6 27 19 54 13 27 54 117 91 199 125 280 557 1230
576 1266 15 31 16 42 6 68 -6 17 -14 31 -17 31 -7 0 -173 -358 -627 -1355
l-119 -260 -62 -3 c-34 -2 -62 0 -62 4 0 7 368 819 666 1472 74 161 134 297
134 303 0 6 -95 234 -211 507 -116 273 -281 661 -366 862 -86 201 -281 660
-435 1020 -154 360 -283 663 -285 673 -5 16 14 17 298 17 l304 0 38 -113z
m2194 96 c-3 -10 -93 -209 -200 -443 -187 -408 -385 -841 -663 -1447 l-129
-282 -67 -1 -67 0 15 37 c9 20 87 192 174 382 358 784 632 1388 716 1574 l89
197 68 0 c61 0 69 -2 64 -17z m482 -460 c112 -263 254 -596 315 -740 61 -145
115 -262 119 -260 5 1 37 68 72 147 35 80 109 249 165 375 55 127 172 391 258
587 86 197 157 356 159 354 5 -5 -217 -514 -573 -1319 -70 -158 -74 -171 -64
-203 6 -19 15 -34 18 -34 6 0 266 584 588 1323 l109 247 57 0 c32 0 58 -4 58
-9 0 -5 -18 -48 -39 -97 -40 -91 -65 -148 -404 -929 -108 -247 -218 -502 -246
-565 -28 -63 -51 -120 -51 -127 0 -14 226 -546 926 -2180 222 -518 404 -945
404 -948 0 -7 -320 -4 -484 4 l-129 6 -98 285 c-238 694 -323 940 -516 1490
-112 322 -228 651 -256 733 l-52 147 -67 0 -67 0 34 76 c38 83 41 98 24 141
l-11 28 -13 -25 c-8 -14 -33 -69 -56 -123 -23 -54 -43 -96 -45 -94 -2 2 21 62
52 134 l56 130 -92 264 c-50 145 -166 478 -257 739 -90 261 -197 571 -236 687
-40 117 -74 213 -77 213 -3 0 -25 -44 -49 -98 -411 -912 -933 -2058 -943
-2067 -13 -14 -2 10 265 595 129 283 319 702 422 930 103 228 213 470 243 538
l55 122 112 0 111 0 203 -477z m-1507 -1883 c24 -30 23 -71 -3 -104 -16 -20
-29 -26 -60 -26 l-39 0 0 81 0 82 42 -6 c27 -4 49 -14 60 -27z m278 3 c26 -33
22 -99 -6 -120 -25 -18 -74 -16 -96 4 -26 23 -25 96 2 123 29 29 74 26 100 -7z
m190 -30 c0 -61 6 -77 30 -85 36 -12 50 10 50 77 0 37 4 65 10 65 6 0 10 -28
10 -64 0 -73 -14 -96 -60 -96 -46 0 -60 23 -60 96 0 36 4 64 10 64 6 0 10 -26
10 -57z m334 41 c18 -18 21 -40 6 -49 -7 -4 -5 -14 5 -28 8 -12 15 -25 15 -29
0 -19 -35 -38 -71 -38 l-39 0 0 73 c0 41 3 77 7 80 12 13 62 7 77 -9z m196
-54 l0 -70 30 0 c17 0 30 -4 30 -10 0 -5 -18 -10 -40 -10 l-40 0 0 80 c0 47 4
80 10 80 6 0 10 -30 10 -70z m285 60 c4 -6 -8 -10 -29 -10 -32 0 -36 -3 -36
-25 0 -21 5 -25 31 -25 17 0 28 -4 24 -10 -3 -5 -17 -10 -31 -10 -19 0 -24 -5
-24 -25 0 -21 5 -25 29 -25 17 0 33 -4 36 -10 4 -6 -12 -10 -39 -10 l-46 0 0
80 0 80 39 0 c22 0 43 -4 46 -10z m409 -67 c14 -42 24 -78 22 -81 -8 -7 -26 9
-26 24 0 24 -67 19 -75 -6 -6 -19 -25 -28 -25 -12 0 24 55 152 65 152 7 0 25
-35 39 -77z m-562 -954 c-176 -398 -343 -779 -372 -847 -29 -67 -55 -120 -57
-118 -4 3 134 323 449 1036 113 256 225 509 248 563 24 53 45 96 47 93 2 -2
-140 -329 -315 -727z m509 709 c-9 -24 -218 -504 -619 -1423 -132 -302 -264
-605 -293 -672 l-53 -123 -68 0 c-37 0 -68 3 -68 8 0 4 52 126 116 272 64 146
153 351 199 455 45 105 162 370 260 590 97 220 224 508 282 640 58 132 109
248 115 258 7 13 22 17 73 17 63 0 64 -1 56 -22z"/>
<path d="M3970 4949 l0 -60 32 3 c27 2 34 9 42 35 11 42 -13 83 -49 83 -24 0
-25 -3 -25 -61z"/>
<path d="M4240 4991 c-30 -56 11 -127 59 -102 28 15 37 66 17 96 -20 30 -61
33 -76 6z"/>
<path d="M4797 5003 c-4 -3 -7 -15 -7 -25 0 -21 45 -26 52 -5 11 28 -24 52
-45 30z"/>
<path d="M4790 4915 c0 -21 5 -25 30 -25 25 0 30 4 30 25 0 21 -5 25 -30 25
-25 0 -30 -4 -30 -25z"/>
<path d="M5692 4971 c-14 -39 -12 -44 16 -39 17 3 18 6 7 38 l-12 34 -11 -33z"/>
</g>
</svg>
