<?xml version="1.0" standalone="no"?>
<!DOCTYPE svg PUBLIC "-//W3C//DTD SVG 20010904//EN"
 "http://www.w3.org/TR/2001/REC-SVG-20010904/DTD/svg10.dtd">
<svg version="1.0" xmlns="http://www.w3.org/2000/svg"
 width="960.000000pt" height="960.000000pt" viewBox="0 0 960.000000 960.000000"
 preserveAspectRatio="xMidYMid meet">
<metadata>
Created by potrace 1.15, written by Peter Selinger 2001-2017
</metadata>
<g transform="translate(0.000000,960.000000) scale(0.100000,-0.100000)"
fill="#000000" stroke="none">
<path d="M4560 8789 c-708 -42 -1379 -271 -1975 -673 -213 -144 -336 -246
-558 -465 -268 -264 -501 -566 -667 -866 -255 -460 -406 -916 -482 -1454 -31
-215 -33 -759 -5 -976 61 -463 179 -867 366 -1255 224 -465 479 -811 875
-1188 843 -801 2046 -1183 3211 -1021 436 60 829 181 1217 375 878 439 1554
1176 1917 2092 291 733 356 1554 185 2324 -159 719 -492 1347 -999 1884 -693
734 -1619 1163 -2642 1224 -189 11 -243 11 -443 -1z m710 -53 c582 -82 1061
-249 1539 -536 283 -170 471 -319 737 -585 327 -327 526 -597 718 -975 239
-469 367 -900 422 -1420 20 -184 22 -566 5 -750 -77 -828 -407 -1606 -942
-2225 -114 -131 -379 -391 -499 -487 -609 -488 -1299 -772 -2080 -854 -196
-20 -681 -15 -860 10 -770 108 -1416 387 -2000 865 -139 114 -403 378 -522
521 -492 596 -781 1274 -885 2075 -27 215 -25 710 5 937 115 871 481 1636
1081 2260 639 664 1484 1075 2416 1173 177 19 705 13 865 -9z"/>
<path d="M2240 7356 c0 -5 -17 37 418 -986 181 -426 360 -847 397 -935 64
-151 279 -656 421 -990 35 -82 64 -155 64 -161 0 -7 -94 -219 -209 -471 -379
-832 -591 -1301 -591 -1307 0 -4 28 -6 62 -4 l62 3 119 260 c65 143 166 364
224 490 281 616 397 865 404 865 4 0 12 -13 17 -29 9 -27 2 -47 -65 -193 -41
-90 -114 -251 -163 -358 -199 -442 -433 -958 -451 -994 -10 -22 -17 -41 -14
-44 4 -5 11 9 131 277 314 697 572 1255 580 1251 8 -4 68 -144 461 -1070 69
-162 141 -332 161 -377 l35 -83 111 0 111 0 182 418 c200 457 325 740 607
1381 103 233 185 425 183 427 -2 2 -31 -58 -65 -133 -97 -221 -575 -1309 -669
-1523 -186 -424 -236 -535 -243 -543 -4 -5 -39 85 -78 200 -84 251 -240 703
-449 1306 l-155 449 42 91 c58 125 74 164 62 152 -5 -5 -31 -59 -58 -119 l-48
-110 -14 34 c-12 31 -11 38 19 104 17 39 34 77 36 84 4 9 -12 12 -61 12 -36 0
-66 2 -66 3 0 2 -59 172 -131 378 -72 206 -173 498 -226 649 -52 151 -131 379
-175 505 -70 201 -143 416 -326 958 l-47 137 -302 0 c-167 0 -303 -2 -303 -4z"/>
<path d="M4926 7321 c-16 -42 -376 -834 -732 -1612 -117 -257 -220 -483 -228
-503 l-15 -36 67 0 67 1 152 332 c213 465 588 1284 726 1587 65 140 117 258
117 263 0 4 -31 7 -69 7 l-69 0 -16 -39z"/>
<path d="M4985 7033 c-81 -181 -294 -650 -473 -1043 -388 -855 -376 -828 -364
-815 6 6 79 161 163 345 83 184 210 463 281 620 72 157 145 319 163 360 18 41
104 230 190 420 86 190 164 362 173 383 8 20 18 37 21 37 3 0 36 -89 73 -198
36 -108 144 -420 238 -692 94 -272 212 -612 262 -754 l90 -259 -56 -130 c-31
-72 -54 -132 -52 -134 2 -2 22 40 45 94 23 54 48 109 56 123 l13 25 11 -28
c17 -43 14 -58 -24 -141 l-34 -76 67 0 67 0 52 -147 c28 -82 143 -411 256
-733 252 -717 258 -735 455 -1312 89 -257 163 -472 167 -478 4 -6 114 -10 307
-10 281 0 300 1 296 18 -3 9 -187 442 -410 962 -802 1873 -918 2145 -918 2161
0 8 23 66 51 129 28 63 138 318 246 565 107 248 251 578 319 734 68 156 124
288 124 292 0 5 -26 9 -58 9 l-57 0 -109 -247 c-331 -759 -582 -1323 -588
-1323 -3 0 -12 15 -18 34 -10 32 -5 47 86 253 53 120 139 314 190 432 52 117
93 215 91 217 -3 4 -127 -271 -313 -698 -38 -86 -72 -154 -75 -150 -3 4 -147
339 -320 744 l-314 738 -111 0 -110 0 -149 -327z"/>
<path d="M4243 5050 c-28 -12 -43 -40 -43 -84 0 -70 67 -100 115 -51 60 59 3
165 -72 135z"/>
<path d="M3942 4973 l3 -78 40 2 c49 3 75 31 75 79 0 47 -29 74 -80 74 l-41 0
3 -77z"/>
<path d="M4764 5036 c-3 -7 -4 -42 -2 -77 3 -62 4 -64 31 -67 51 -6 103 51 67
73 -6 3 -7 17 -4 31 4 14 1 31 -6 39 -16 19 -79 20 -86 1z"/>
<path d="M5543 4673 c-14 -32 -100 -227 -191 -433 -91 -206 -201 -456 -244
-555 -275 -621 -518 -1179 -518 -1187 0 -5 31 -8 68 -8 l68 0 53 123 c29 67
161 370 293 672 401 919 610 1399 619 1423 8 21 7 22 -57 22 l-65 0 -26 -57z"/>
</g>
</svg>
